# xmcd
#
# Track frame offsets: 
#        150
#        13103
#        31927
#        47173
#        58874
#        78182
#        89824
#        107602
#        121402
#        136232
#        154240
#        167283
#        180811
#        196480
#        208855
#        223749
#        236948
#        252850
#        268077
#        282113
#        293303
#        309293
#
# Disc length: 4376 seconds
#
# Revision: 0
# Processed by: cddbd v1.5.2PL0 Copyright (c) Steve Scherf et al.
# Submitted via: ExactAudioCopy v0.99pb3
#
DISCID=35111616
DTITLE=Björn Skifs - I mörkret med dig ...
DYEAR=2006
DGENRE=Blues
TTITLE0=Hooked on a feeling
TTITLE1=Måndag morgon
TTITLE2=Härligt Härligt men farligt, farligt
TTITLE3=Sally var en reko brud
TTITLE4=Vi bygger oss en båt
TTITLE5=Working in a coalmine
TTITLE6=I mörkret med dig
TTITLE7=Det blir alltid värre framåt natten
TTITLE8=Michelangelo
TTITLE9=Det regnar, regnar
TTITLE10=Half breed
TTITLE11=Fångad i en dröm
TTITLE12=Ni som kan ro
TTITLE13=No particular place to go
TTITLE14=Lady
TTITLE15=Silly milly
TTITLE16=En joker i leken
TTITLE17=Krama mig
TTITLE18=Till en poet
TTITLE19=Never my love
TTITLE20=Kyss mig
TTITLE21=Blå, blå känslor
EXTD=
EXTT0=
EXTT1=
EXTT2=
EXTT3=
EXTT4=
EXTT5=
EXTT6=
EXTT7=
EXTT8=
EXTT9=
EXTT10=
EXTT11=
EXTT12=
EXTT13=
EXTT14=
EXTT15=
EXTT16=
EXTT17=
EXTT18=
EXTT19=
EXTT20=
EXTT21=
PLAYORDER=
